/* XPM */
static char *_516020643867[] = {
/* columns rows colors chars-per-pixel */
"16 16 209 2 ",
"   c #855200",
".  c #966000",
"X  c #9B6300",
"o  c #9D6200",
"O  c #9C6700",
"+  c #9D6B07",
"@  c #A86C00",
"#  c #A87108",
"$  c #B47F18",
"%  c #AC832E",
"&  c #B78626",
"*  c #B98720",
"=  c #BB8822",
"-  c #BE8A20",
";  c #B2862D",
":  c #B9892C",
">  c #BB8A2C",
",  c #BF902F",
"<  c #BE9232",
"1  c #BE9135",
"2  c #C69132",
"3  c #C09335",
"4  c #C69134",
"5  c #C79336",
"6  c #C79436",
"7  c #CE9832",
"8  c #CF9B33",
"9  c #C4953B",
"0  c #C9973A",
"q  c #C7983C",
"w  c #C7993C",
"e  c #C89838",
"r  c #CB993B",
"t  c #CA983D",
"y  c #CA993F",
"u  c #CE9D3E",
"i  c #D9A53C",
"p  c #AF8E44",
"a  c #BA9B4E",
"s  c #B79B55",
"d  c #BB9D54",
"f  c #BDA155",
"g  c #BEA964",
"h  c #C59940",
"j  c #C69B44",
"k  c #C69D46",
"l  c #CA9B41",
"z  c #CC9B40",
"x  c #CF9F45",
"c  c #C29C49",
"v  c #CA9F48",
"b  c #C69F51",
"n  c #C49E52",
"m  c #CCA84E",
"M  c #D0A141",
"N  c #D0A043",
"B  c #D0A245",
"V  c #D1A249",
"C  c #D2A54A",
"Z  c #D9AD4F",
"A  c #CDA551",
"S  c #CDA650",
"D  c #CBA756",
"F  c #CFA855",
"G  c #C1AC5B",
"H  c #D2A951",
"J  c #D1A952",
"K  c #D2A853",
"L  c #D3A953",
"P  c #D5A952",
"I  c #D5AD51",
"U  c #D0A954",
"Y  c #D4AA55",
"T  c #D4A956",
"R  c #DCAF56",
"E  c #D2AB58",
"W  c #D4AD58",
"Q  c #D5AD58",
"!  c #D7AF59",
"~  c #D5AD5B",
"^  c #D7AF5B",
"/  c #D7AF5D",
"(  c #D8AD59",
")  c #D8AF5B",
"_  c #D9AF5B",
"`  c #DBB055",
"'  c #D1B05F",
"]  c #D7B05C",
"[  c #D8B05B",
"{  c #D8B05D",
"}  c #DAB35F",
"|  c #D2BA5E",
" . c #E1B45C",
".. c #E0B55D",
"X. c #CEAE61",
"o. c #C8AD6D",
"O. c #C5B162",
"+. c #D8B260",
"@. c #D8B263",
"#. c #DBB362",
"$. c #D9B662",
"%. c #D2B56B",
"&. c #D4B66B",
"*. c #D4B66E",
"=. c #DCB868",
"-. c #DCBA6C",
";. c #DCB96F",
":. c #CCB576",
">. c #CBB977",
",. c #CFB977",
"<. c #CBB679",
"1. c #DAB97A",
"2. c #DABC79",
"3. c #DCBC7E",
"4. c #E0B560",
"5. c #E5BF6D",
"6. c #EBBF6C",
"7. c #E0BB71",
"8. c #E4BF71",
"9. c #D8C165",
"0. c #D6C26E",
"q. c #DAC46B",
"w. c #DDCC7D",
"e. c #EBC46E",
"r. c #E4C070",
"t. c #E7C071",
"y. c #E1C074",
"u. c #E1C177",
"i. c #E9C571",
"p. c #EDC97B",
"a. c #F3C571",
"s. c #F9CC72",
"d. c #F2CE7D",
"f. c #F1CC7E",
"g. c #E8D57E",
"h. c #D3C281",
"j. c #DACA84",
"k. c #DDC788",
"l. c #DBC790",
"z. c #DCC794",
"x. c #DAC998",
"c. c #E3C480",
"v. c #E5C880",
"b. c #E6C881",
"n. c #E4CA86",
"m. c #E0CB8B",
"M. c #E4CC89",
"N. c #E7CD8B",
"B. c #E4C88C",
"V. c #EED185",
"C. c #E7D78B",
"Z. c #EFD28E",
"A. c #F9D68F",
"S. c #E7CC93",
"D. c #E2C899",
"F. c #E4CB9D",
"G. c #E7D393",
"H. c #EED391",
"J. c #EAD095",
"K. c #EBD494",
"L. c #EAD496",
"P. c #EFDF93",
"I. c #EBDB96",
"U. c #E7D79A",
"Y. c #E5D59F",
"T. c #EBDB98",
"R. c #EEDB9D",
"E. c #F2D491",
"W. c #F1D692",
"Q. c #FFDE92",
"!. c #F1E194",
"~. c #F2E295",
"^. c #F2E39B",
"/. c #F4E598",
"(. c #FBE29D",
"). c #CCCCAC",
"_. c #E3D7A7",
"`. c #E8D3A3",
"'. c #EDD6A5",
"]. c #E4D9A6",
"[. c #E9D5AA",
"{. c #E5DBA9",
"}. c #EBD9A9",
"|. c #EFDBAA",
" X c #EDDAAC",
".X c #F3E4A3",
"XX c #F6E7A0",
"oX c #F6E7A3",
"OX c #FDE7A7",
"+X c #F3E0A8",
"@X c #EFE4B1",
"#X c #E8E0B9",
"$X c #F3E5B3",
"%X c #F3E8B3",
"&X c #F6E9B2",
"*X c #F3E9B7",
"=X c #F8EDB7",
"-X c #F4E8BA",
";X c #F4EDBA",
":X c #F1E9BC",
">X c #FBF1B7",
",X c #F6F3C6",
"<X c #F9F0C1",
"1X c #F8F1C4",
"2X c #FBF9CF",
"3X c #FBFCD4",
"4X c #FAFCD5",
"5X c #FBFFDC",
"6X c None",
/* pixels */
"6X6X6X6X6X[.J.'.|.`.F.6X6X6X6X6X",
"6X6X6X|.2.} a.f.W.&X1X|.D.6X6X6X",
"6X6XB.n = ] t.e.i.V.R.3X-X1.6X6X",
"6XJ.n X X.I i z.#X{.k.M.4X$X3.6X",
"6X;.# D < ; x.<X>X].)..XM.5XM.6X",
"u.t w F X <.~.XXU.m Q.2XG.@X;X7.",
";.6 ^ t = % h.C.XX_.%.(.%XK.,Xu.",
"} t ] t 9 - . ,.^.=X:Xk.OXK.-Xb.",
"_ y / N 7 * O :.P.~./.T.d.K.+Xy.",
"Q e @.0 o.l.Y.I.g.w.j.*.s.Z.W.} ",
"S u Y Z a | 9.q.0.<.p 8 p.A.6.H ",
"6XH 2 8.u s g G O.  @ $.b. .R 6X",
"6Xk C 4 t.] : a f 3 ' %.1 B ^ 6X",
"6X6XA _ 6 P 5.} R ;.c + 3 ^ 6X6X",
"6X6X6Xj @.V z N t > & v _ 6X6X6X",
"6X6X6X6X6XF E Y H H _ 6X6X6X6X6X"
};
