/* XPM */
static char *_516020825243[] = {
/* columns rows colors chars-per-pixel */
"32 32 211 2 ",
"   c #7A5106",
".  c #855808",
"X  c #9E6904",
"o  c #9A6D12",
"O  c #A46D02",
"+  c #A36F08",
"@  c #AA740C",
"#  c #B17B0B",
"$  c #A67413",
"%  c #AA7512",
"&  c #AC7B1A",
"*  c #AA7816",
"=  c #B07C16",
"-  c #8D6721",
";  c #906D2A",
":  c #92702E",
">  c #AF7F24",
",  c #A37524",
"<  c #B07D21",
"1  c #A67D32",
"2  c #987E48",
"3  c #B5821D",
"4  c #B9861D",
"5  c #BC8512",
"6  c #AD8023",
"7  c #B48322",
"8  c #BA8623",
"9  c #BC8921",
"0  c #B78929",
"q  c #BB8B2D",
"w  c #AB863C",
"e  c #BD8E31",
"r  c #B38A36",
"t  c #BD933C",
"y  c #BF9032",
"u  c #C88F22",
"i  c #C28C2B",
"p  c #C4912C",
"a  c #C9932D",
"s  c #CB9420",
"d  c #D19529",
"f  c #D19320",
"g  c #C28E31",
"h  c #C49233",
"j  c #C99535",
"k  c #CA9935",
"l  c #C3963A",
"z  c #C99738",
"x  c #C4983D",
"c  c #CB9A3B",
"v  c #D59F34",
"b  c #D4A139",
"n  c #9F834B",
"m  c #9F8852",
"M  c #A78748",
"N  c #AE924F",
"B  c #A99055",
"V  c #B29A5D",
"C  c #BCA657",
"Z  c #AE9B64",
"A  c #A9996D",
"S  c #B49C63",
"D  c #AB9D77",
"F  c #BCA662",
"G  c #BAA877",
"H  c #AAA179",
"J  c #C79B42",
"K  c #CB9D42",
"L  c #CA9D48",
"P  c #C39745",
"I  c #C19F5D",
"U  c #CBA047",
"Y  c #CEA44C",
"T  c #D7A441",
"R  c #D2A64D",
"E  c #D6A94D",
"W  c #DFB04A",
"Q  c #CDA351",
"!  c #CFAA53",
"~  c #C3AD59",
"^  c #D3A751",
"/  c #D4AB54",
"(  c #D9AE55",
")  c #D5AD5A",
"_  c #DBAE59",
"`  c #CBB45D",
"'  c #D7B15C",
"]  c #DAB25E",
"[  c #D6B057",
"{  c #EDBE5B",
"}  c #E5B556",
"|  c #C4A968",
" . c #D3AE64",
".. c #CBB569",
"X. c #D5B364",
"o. c #DBB463",
"O. c #D4BD62",
"+. c #DBB965",
"@. c #D4B66D",
"#. c #DAB569",
"$. c #D5BB6D",
"%. c #DDB96A",
"&. c #CCBB7D",
"*. c #CCB773",
"=. c #DEBC72",
"-. c #DFBF7B",
";. c #C2AC78",
":. c #E2BC6D",
">. c #E6BB67",
",. c #E1BE74",
"<. c #E1BF79",
"1. c #DBC46B",
"2. c #D5C068",
"3. c #DEC373",
"4. c #DECA74",
"5. c #DBC37C",
"6. c #D8C779",
"7. c #ECC26B",
"8. c #F4C66A",
"9. c #E4C275",
"0. c #E9C474",
"q. c #E1CC72",
"w. c #E3C37C",
"e. c #ECCA7C",
"r. c #EBCA79",
"t. c #F2C673",
"y. c #F1C975",
"u. c #F0C97E",
"i. c #E6D27D",
"p. c #F6D27D",
"a. c #BBAD83",
"s. c #C9B887",
"d. c #C2B693",
"f. c #C5BC92",
"g. c #DDCC83",
"h. c #DFC785",
"j. c #C9C09C",
"k. c #D5C995",
"l. c #E3C682",
"z. c #E4CA83",
"x. c #EDCD84",
"c. c #E6CC8B",
"v. c #EACD8B",
"b. c #F3CF83",
"n. c #E3D286",
"m. c #ECD386",
"M. c #E5D38C",
"N. c #EBD28B",
"B. c #ECDB8C",
"V. c #ECD985",
"C. c #F3D48D",
"Z. c #F9D58C",
"A. c #F1DF8F",
"S. c #FFDA86",
"D. c #E6CB91",
"F. c #EACE91",
"G. c #E4CD9D",
"H. c #E5D191",
"J. c #ECD296",
"K. c #EBDB94",
"L. c #EAD59B",
"P. c #ECDE9B",
"I. c #E7D998",
"U. c #F2D695",
"Y. c #F2DC94",
"T. c #F3DB9C",
"R. c #F7D895",
"E. c #F8E28D",
"W. c #F3E395",
"Q. c #F3E49B",
"!. c #FFE59B",
"~. c #FCE59A",
"^. c #DED2AC",
"/. c #DCD5B9",
"(. c #EBD4A6",
"). c #ECDDA4",
"_. c #E7D3A9",
"`. c #E9D4AC",
"'. c #E8DBA8",
"]. c #F2DDA2",
"[. c #F2DDAD",
"{. c #EBDAB4",
"}. c #EBDAB8",
"|. c #F1DFB5",
" X c #F0DDBB",
".X c #F4E1A3",
"XX c #F6E9A5",
"oX c #F4E3AB",
"OX c #F6E9AB",
"+X c #F9ECAC",
"@X c #EDE4B6",
"#X c #F2E3B3",
"$X c #F9EBB5",
"%X c #F4ECBB",
"&X c #F9EEBB",
"*X c #F0E9B2",
"=X c #F7F1BF",
"-X c #FCF2BA",
";X c #EFE3C2",
":X c #EEE8CA",
">X c #F2EFC5",
",X c #F7E7C1",
"<X c #F5F4C5",
"1X c #FBF2C4",
"2X c #F4F4CA",
"3X c #FCFACC",
"4X c #F8F8C6",
"5X c #F7EDD1",
"6X c #FCFEDA",
"7X c #FFFFE3",
"8X c None",
/* pixels */
"8X8X8X8X8X8X8X8X8X8X8X8X8XG.`.}.}.`.G.8X8X8X8X8X8X8X8X8X8X8X8X8X",
"8X8X8X8X8X8X8X8X8X8X{.{.(.].F.F.J.L.|.{.(.(.8X8X8X8X8X8X8X8X8X8X",
"8X8X8X8X8X8X8X8X@X`.-.} } 8.b.C.T.]..XK.L.L.(.}.8X8X8X8X8X8X8X8X",
"8X8X8X8X8X8XL.5X .p E :.t.t.u.C.R.T.oX&X3X2XL.D. X`.8X8X8X8X8X8X",
"8X8X8X8X8X|.|.4 9 / Y ^ :.,.=.,.,.-.c.).#X=X6X4Xz.D.;X8X8X8X8X8X",
"8X8X8X8X|.(.O 7 x e ) =.#.o.+.y.p.9.%.X.#.).>X4X6XD.<.;X8X8X8X8X",
"8X8X8XF.#XO & 6 6 @.3.^ ^ 8.S.*.;.Q.+XXXz.) w.2X4X7XD.w.`.8X8X8X",
"8X8X8X,X9 & & $ w.+.q R { { w /.:XD d.f.6X%X' @.>X<X7X5.c.8X8X8X",
"8X8X[.o.% 0 $ w.! $ x k 1 H `.4X=X-X-X*XH 2X6X+.%.2X4X6X#.H.8X8X",
"8X8XJ.4 e * @.:.+ 7 4 n @X<X,X+XQ.I.k.G.D s.3X6Xo.c.2X6X).%.8X8X",
"8Xv.#.8 7 P x.= 7 4 - ).OXXXXXQ.Q.B 7.e.XXXXoX3X%X] #X<X6Xw.w.8X",
"8Xv.K h 7 =./ < 0 4 ; n.B.B.W.Q.XXG ( E.R.U..XoX6Xc.-.%X6XH.>.8X",
"#.w.z j J ,.e e q e $ m 6.g.B.W.OX-Xj.N p.!.U..X=X*X%.#X3X@X9.3.",
"%.:.z i ) :.i l y q p + ; 6.g.B.Q.OX=X;XA @.!.L..X1Xz.J.%X2Xw.%.",
"+.+.j h @.+.j z h y q e $   s.n.B.W.XX-X1Xd.@.!.L.&XN.c.#X4Xw.:.",
"+.] z g #.] j c l y e 0 0 5   g.B.A.W.XXOX-Xa.e.T.oXN.v.oX1Xw.+.",
"o._ j j #.] j K c l h g e s . z.B.B.A.W.Q.XX).| R.Q.N.v.T.&X9.o.",
") o.z i #.:.j K T b a i % . s.P.B.B.B.A.A.P.I.C S.U.C.v.U.#X%.o.",
") ] z j  .0.a K t 1 M S s.'.).K.V.V.V.B.n.g.&._ b.b.x.F.C.oXo.] ",
"Y ] L j L z.K u S M.).'.).I.m.i.i.i.i.i.6.h.w 8.t.y.v.x.Z.x./ ] ",
"8X' ^ c g l.>.d w @.O.3.4.4.q.q.4.4.2.*.G : W ] >.u.F.7.R.,.R 8X",
"8XY ) c j L J.c u n ~ ` O.O.2.1.1.2...n o b R ! ( T.0.8.Z.( ^ 8X",
"8X8X/ R c i 5.m.d & V C C C ..O.2...  # y y t y Z.v.^ y.>.R 8X8X",
"8X8XJ o.z c i J.e.s , Z F M V ~ ..G X q 6 3 3 i.T.c ( >.E / 8X8X",
"8X8X8XU +.j j g J.U.v % < u M F C S 6 8 X = Y.P.e x [ R E 8X8X8X",
"8X8X8Xe ) o.i j q <..Xt.b j u = % # 4 q %.$X5.& e J U E ' 8X8X8X",
"8X8X8X8X0 >.:.i z i L c.U.N.e.0.0.r.N.T.H.t X 6 0 t E ] 8X8X8X8X",
"8X8X8X8X8Xq #.w.j j j i L #.<.w.w.-. .t % * & $ t ] ( 8X8X8X8X8X",
"8X8X8X8X8X8Xq ) l.o.j a j a g i q 8 = 8 7 6 q Q ] ^ 8X8X8X8X8X8X",
"8X8X8X8X8X8X8X8XK ,.<.#.^ c c j j j h J L ^ o.( 8X8X8X8X8X8X8X8X",
"8X8X8X8X8X8X8X8X8X8XL #.#.#.#.#.o.o. .] o./ 8X8X8X8X8X8X8X8X8X8X",
"8X8X8X8X8X8X8X8X8X8X8X8X8XL Y Y Q R R 8X8X8X8X8X8X8X8X8X8X8X8X8X"
};
