/* XPM */
static char *_516020838601[] = {
/* columns rows colors chars-per-pixel */
"64 64 242 2 ",
"   c #523F29",
".  c #64420B",
"X  c #664717",
"o  c #79520F",
"O  c #5F4626",
"+  c #684C21",
"@  c #725C3A",
"#  c #705731",
"$  c #7A613A",
"%  c #5C421D",
"&  c #715F47",
"*  c #79664C",
"=  c #865D14",
"-  c #8B6115",
";  c #996A13",
":  c #9C6A0F",
">  c #A36E17",
",  c #AC7B1C",
"<  c #A67516",
"1  c #B47E16",
"2  c #AB750E",
"3  c #886428",
"4  c #9B7228",
"5  c #85693B",
"6  c #866838",
"7  c #956D28",
"8  c #AE7E21",
"9  c #A67624",
"0  c #B17E22",
"q  c #A37C30",
"w  c #8F7C57",
"e  c #8D754A",
"r  c #BA831B",
"t  c #B4811B",
"y  c #AF8022",
"u  c #AC822D",
"i  c #B38324",
"p  c #BD8A24",
"a  c #B58629",
"s  c #BA862C",
"d  c #B6892B",
"f  c #BB8B2C",
"g  c #B88627",
"h  c #BD8E31",
"j  c #BA8B39",
"k  c #BE9134",
"l  c #BD923A",
"z  c #AF883B",
"x  c #C38A1E",
"c  c #C18C22",
"v  c #C28E2D",
"b  c #C88D21",
"n  c #C59125",
"m  c #C4912E",
"M  c #CC962B",
"N  c #C18E31",
"B  c #C39334",
"V  c #C99536",
"C  c #CC9A35",
"Z  c #C49639",
"A  c #C99739",
"S  c #C5993D",
"D  c #CB9A3D",
"F  c #D09D38",
"G  c #D7A33D",
"H  c #CFA03D",
"J  c #998357",
"K  c #A58A57",
"L  c #B8995C",
"P  c #AC8B4D",
"I  c #BBA65A",
"U  c #B6A04F",
"Y  c #988B6F",
"T  c #A28C62",
"R  c #B19C66",
"E  c #A5977A",
"W  c #AD9967",
"Q  c #BDA866",
"!  c #B6A778",
"~  c #C59B44",
"^  c #CC9D41",
"/  c #C59C4A",
"(  c #C59845",
")  c #D09F41",
"_  c #CA9E51",
"`  c #CCA145",
"'  c #CCA34B",
"]  c #C6A24C",
"[  c #D2A243",
"{  c #D2A54C",
"}  c #D4A94D",
"|  c #DBA843",
" . c #CCAA55",
".. c #C7AA57",
"X. c #D4AB53",
"o. c #D9AD53",
"O. c #D4AD5A",
"+. c #D5AB56",
"@. c #CBB45B",
"#. c #C7B15A",
"$. c #DCB35C",
"%. c #D8B45A",
"&. c #E4AE45",
"*. c #E6BA5A",
"=. c #EBB648",
"-. c #D4AE64",
";. c #DCAF60",
":. c #CBB666",
">. c #D6B262",
",. c #DBB563",
"<. c #D5BE62",
"1. c #DDB864",
"2. c #D6B46A",
"3. c #DAB56C",
"4. c #DBBA6B",
"5. c #D7B96A",
"6. c #C8B676",
"7. c #DCBC74",
"8. c #DABB78",
"9. c #C2AC70",
"0. c #E1B762",
"q. c #E3BA64",
"w. c #E4BD6A",
"e. c #E8BE69",
"r. c #E2BE73",
"t. c #E1BE7A",
"y. c #DAC265",
"u. c #DCC66A",
"i. c #DFC86D",
"p. c #D6C16B",
"a. c #DDC37C",
"s. c #DAC678",
"d. c #E5C16C",
"f. c #EBC16D",
"g. c #E3C86C",
"h. c #F5C869",
"j. c #E3C374",
"k. c #E9C473",
"l. c #E2CD73",
"z. c #EBC875",
"x. c #E4C47B",
"c. c #E5CB7D",
"v. c #EBCA7D",
"b. c #E8C57B",
"n. c #F1C573",
"m. c #F3C976",
"M. c #F2CA7B",
"N. c #FACE7D",
"B. c #E6D27B",
"V. c #E8D47E",
"C. c #E5D077",
"Z. c #FDD378",
"A. c #B6A787",
"S. c #BAB197",
"D. c #C8B888",
"F. c #D6BF8A",
"G. c #DDCC82",
"H. c #DAC486",
"J. c #D9C997",
"K. c #DDD095",
"L. c #CFC19D",
"P. c #E3C584",
"I. c #E4CA84",
"U. c #EBCC83",
"Y. c #E5CA8B",
"T. c #E9CC8B",
"R. c #E1C589",
"E. c #F1CE83",
"W. c #F1CF88",
"Q. c #E5D384",
"!. c #EAD583",
"~. c #ECD985",
"^. c #ECD38B",
"/. c #EDDC8B",
"(. c #E5D48A",
"). c #F3D184",
"_. c #F2D38C",
"`. c #F0DE8E",
"'. c #FCD887",
"]. c #E2CC93",
"[. c #E8CE98",
"{. c #E5D493",
"}. c #ECD293",
"|. c #EBD59C",
" X c #EADB9D",
".X c #E8D997",
"XX c #F2D693",
"oX c #F4DA94",
"OX c #F3DA9C",
"+X c #F8DC98",
"@X c #FCE38A",
"#X c #F3E294",
"$X c #F5E59B",
"%X c #FCE39D",
"&X c #FCE798",
"*X c #EFE29B",
"=X c #D9CCA4",
"-X c #D8D0AE",
";X c #EDDBA4",
":X c #E6D7A6",
">X c #F3DEA2",
",X c #F5DEA8",
"<X c #E9DAB4",
"1X c #F2DFB4",
"2X c #EEE2A8",
"3X c #F3E1A5",
"4X c #FCE4A3",
"5X c #F6E9A2",
"6X c #FCECA5",
"7X c #F4E4AB",
"8X c #FAE4AB",
"9X c #FBEBAC",
"0X c #F6EAAA",
"qX c #FEF1AB",
"wX c #EBE5B9",
"eX c #F4E6B2",
"rX c #F4E9B5",
"tX c #FCEDB3",
"yX c #F4EDBC",
"uX c #F9EDBB",
"iX c #F9E5B5",
"pX c #F4F0BF",
"aX c #FDF2BC",
"sX c #FDF4B6",
"dX c #EDE2C5",
"fX c #F7ECC7",
"gX c #F5F2C1",
"hX c #FBF3C3",
"jX c #FEFBC5",
"kX c #FBF4CD",
"lX c #FAF9CB",
"zX c #F7F5CB",
"xX c #F5ECD8",
"cX c #FBFCD3",
"vX c #FEFFDC",
"bX c #F8F0DC",
"nX c #FFFEE3",
"mX c #FEFBEC",
"MX c #FAF5E7",
"NX c #FFFFFE",
"BX c #FEFEF5",
"VX c None",
/* pixels */
"VXVXVXVXVXVXVXVXVXVXVXVXVXVXVXVXVXVXVXVXVXVXVXVXVXVXVX{ -.7.x.H.R.R.8.2.O.VXVXVXVXVXVXVXVXVXVXVXVXVXVXVXVXVXVXVXVXVXVXVXVXVXVXVX",
"VXVXVXVXVXVXVXVXVXVXVXVXVXVXVXVXVXVXVXVXVXVXVXO.P.eXbXBXNXNXNXNXNXNXNXNXNXMXdX[.2.VXVXVXVXVXVXVXVXVXVXVXVXVXVXVXVXVXVXVXVXVXVXVX",
"VXVXVXVXVXVXVXVXVXVXVXVXVXVXVXVXVXVXVXVX} T.xXBXBXMXdX}.R.7.,.r.3.,.7.R.].1XmXNXNXBX<X2.VXVXVXVXVXVXVXVXVXVXVXVXVXVXVXVXVXVXVXVX",
"VXVXVXVXVXVXVXVXVXVXVXVXVXVXVXVXVXVX$.1XBXNXxXH.$.} [ o.0.w.j.v.P.v.I.j.4.,.$.O.3.1XNXNXbX8.VXVXVXVXVXVXVXVXVXVXVXVXVXVXVXVXVXVX",
"VXVXVXVXVXVXVXVXVXVXVXVXVXVXVXVX} 7XBXmX[.{ C | q.m.E._.oX+X+XOX3X3XeXiXuXhXrX;Xs.%.+.t.MXNXMX2.VXVXVXVXVXVXVXVXVXVXVXVXVXVXVXVX",
"VXVXVXVXVXVXVXVXVXVXVXVXVXVXVXT.NXnXF.C V o.e.m.m.m.M.M.E.E._._.XXOX+X>X>X7XeXgXcXcX2X5.H 3.MXNXdXVXVXVXVXVXVXVXVXVXVXVXVXVXVXVX",
"VXVXVXVXVXVXVXVXVXVXVXVXVXX.fXNX|.B n { 1.0.1.w.e.n.m.M.M.E._._.XXoXOX>X>X>X7X7XrXyXlXvXgX5.H P.NXNXF.VXVXVXVXVXVXVXVXVXVXVXVXVX",
"VXVXVXVXVXVXVXVXVXVXVXVX4.BXMXX.r Z +.X.+.$.*.0.e.n.m.N.N.M.E.W._.XXoXOX5X0X7X7XeXrXyXyXlXnXyXO.) fXNX<XVXVXVXVXVXVXVXVXVXVXVXVX",
"VXVXVXVXVXVXVXVXVXVXVXY.NX,Xm t S ' ` } X.+.$.e.e.0.$.,.3.3.t.I.T.R.F.R.].].;XiXiXrXrXyXpXpXlXvX{.C w.NXxXVXVXVXVXVXVXVXVXVXVXVX",
"VXVXVXVXVXVXVXVXVXVX}.NXT.r i l S ~ ` ' } %.o./ _ 3.t.T._._.U.U.v.U._.XX{.|.].J.:X7XaXyXyXgXyXgXvXwXV } NXBXVXVXVXVXVXVXVXVXVXVX",
"VXVXVXVXVXVXVXVXVX}.NXj.t y k k l S ~ { ` j ( 7._.).j.%.' ' ' ' ' ' / ` } *.V. X|.J.:XeXjXpXgXpXyXcXvX` M nXmXVXVXVXVXVXVXVXVXVX",
"VXVXVXVXVXVXVXVXP.NXx.1 , a d h k S ` a j a.+Xv. .~ ~ +.q.b.E._.XXXX^.I.s.O./ D 0.oX|.J.:XhXgXyXgXyXlXnXX.x nXbXVXVXVXVXVXVXVXVX",
"VXVXVXVXVXVXVX,.BXU.r , y i d d l f > ..$X!.] Z { q.m.N.N.'.@X@X%XqX8X7XiXaXtXY...V *.+X[.=XgXlXyXgXyXzXnX' M mXdXVXVXVXVXVXVXVX",
"VXVXVXVXVXVX` nX;Xc y y y y i h 8 > I.5X .h / $.0.0.q.f.m.M.R w K K .XqX9XsXaXlXcX2X..B v.3XJ.wXlXpXpXyXzXvXZ G BXH.VXVXVXVXVXVX",
"VXVXVXVXVXVX1XkXC i y i y y d : 9 +X`.l B ' ' X.+.$.0.w.Z.>.Y wXdXS.e H.9.W J.jX7XlXvX{.k %.%XJ.wXlXpXpXyXcXkXr e.BXVXVXVXVXVXVX",
"VXVXVXVXVX7.nX$.f i d d i d : < 6Xc.f k Z S ` ' { o.h.h.h.6 L.aXzXfXJ A.S.-X* D.jX7XyXnXgX] } %XJ.wXjXpXgXyXvX;X1 tXfXVXVXVXVXVX",
"VXVXVXVX^ kX}.B i f d a f > > 9Xb.d a f k S ~ ` *.o.z 6 e Y rXsXtXaXhXlXkXkXzX& ! jXrXrXcXvX..[ 4XJ.yXlXpXpXpXnX:.b vXF.VXVXVXVX",
"VXVXVXVXY.kX[ s f f p f y ; $XQ.d , y f k k H | 4 # E wXzXaXyXqX6X0XqXqX6X6X9XsXA.! jXtXrXlXvX..} 4XJ.gXgXpXpXlXzXc M.kXVXVXVXVX",
"VXVXVX' uXx.m p h f f p : x.+Xk i , y a d C k + E pXgXsXtXqX0X6X5X5X*X.XK.K.J.J.L.O Y pXyXyXzXvX` 0.>X-XlXyXpXyXnXH.b jXR.VXVXVX",
"VXVXVXP.eX` B N B f B > / 6X~ i y i y y h p O =XpXpX0X5X$X$X$X5X$X*X(.S.J J K R ! S.! ;XtXrXyXcXhXS !.|.wXlXpXpXzXlXB z.fXVXVXVX",
"VXVX/ ,XT.S N B j B g 9 %X5.p i d i i y p o S.0X5X$X$X#X$X$X$X$X$X*X! 5 z.@X&X&X6XqXqX7X7XeXyXyXnX.X` $XK.gXpXpXyXnX8.M aX8.VXVX",
"VXVX,.8X,.S N B B V > 5.#Xj f f d d i t t $ #X*X#X#X#X*X$X&X$X$X$X*Xe Z.'.N.)._.`.XXOX>X7X7XrXrXgXvX>.q.;X<XlXgXpXlXyXv '.:XVXVX",
"VXVXP.XX) B A Z Z s 0 $X>.v g f d d i d < $ ~./.#X#X#X#X#X#X$X$X$X0XJ U @Xm.E.E._.}.oXOX3X2X7XrXyXcX2X' +X:XyXgXgXpXvXO.&.iXVXVX",
"VX` }.x.^ B Z Z S 8 -.oXZ B h h f d d d p + s.G.V./.#X#X#X#X#X$X5X9XrX& P '.'.v._._.XXOXOX3X7X7XrXyXvX5.w.;X:XhXgXyXvXY.V tX8.VX",
"VXO.OX3.^ A S A A 0 T.j.B N B h f f f d p ; $ s.G.G./.*X#X*X#X#X$X5XyXpXY 6 z.@X)._._.XXOX>X;X7XeXrXcX Xo.OX:XpXyXgXlXwXV `.Y.VX",
"VX,.XX>.D D D D s ( +X .Z N B h h f f d a n - $ s.H.Q.~./.*X#X#X$X$X6XtXhX-X@ L @X'.W.XXXXOX>X3X7XrXyXhX,.U.:XeXyXyXgXlX' d.|.VX",
"VXr.U.' D ^ ^ ) i -.XXS A Z Z N k h f d d a n ; % ! s.G.(./.#X#X#X#X$X$X9XuXhXE $ l.&X_.XXoXOX>X3X7XeXcXs.f.;X;XyXyXpXvX,.o.>XVX",
"/ k.c./ A D ^ ) 0 j.U.D A Z Z B k k h f a d d n t % J s.B.Q./.#X#X#X#X$X$X0XrXgX<X* L &X_.XXOXOX;X7X7XhX{.q. X:XrXrXrXvXH.[ OX>.",
"` k.T.' A ^ ^ F j T.j.D A D Z Z B k h h f d a i d p o $ s.s././.#X#X#X#X$X$X5XeXaXgXY e &XoX}.OXOX3X7XyX;X1.OX:X7XrXrXcXY.F +X2.",
"' k.7.{ V ^ D D j _.4.D D D A A B B B h h f d d i t n :   s.G.~./.`.#X#X#X$X$X$X0XtXhXA.e &X_.XXOXOX3XrX0X1.OX[.7X7XrXlX.X~ XX8.",
"` z.,.^ A D ) A Z _.,.D D ^ D D Z Z B k h f f d d i y p ; # l.~./.`./.`.#X#X$X$X$X6XrXaXY _ &X_.XXOXOX7X7X4.}.|.3X7X7XhX XD U.j.",
"/ k.s.) A ) ^ A ( _.>.D S ^ D S S V B k h h f f d d i y p o ! ~././.@X#X#X#X#X#X$X$X$X0XrX* _.'.XXoX X3X7Xd.}.;XOX3X7XhX X^ b.P.",
"/ w.7.{ A ^ ) A ( _.,.D A ^ D ^ D Z Z B B h h f f d a i x = ! ~./././.#X#X#X#X#X#X$X$X6XqXA.L &X_.XXoX>X3Xd.}.|.OX>X3XyX|.^ z.j.",
"` w.,.^ A D ) A ( XX1.D D ^ ) D D D Z B B B h h f d a f x . K.`.~.~././.~.#X/.#X#X#X#X$X$XK.P @XE._.XXOXOXj.XX}.OX>X>XuX{.D b.8.",
"~ 0.t.{ V ) D D j _.7.D A ^ ^ ^ ^ D D Z Z B B h f m M c . ! *X/.~.~.~./././.#X@X#X#X#X#X*XK.K @XE.W._.OXoXj.OXY.XXOX>XuXG.D v.7.",
"~ $.r.{ V ^ ) D s T.v.) A ^ D ^ ^ ^ D A Z D F F C i - X A.*X.X~.~.~.~.~././././.`.#X#X#X`.D.P Z.E.E.W.XXW.r.>XT.oXXXOXtXa.D v.3.",
"' +.4.{ A ^ D ) s t.XX[ A ) D D G | | F B u 4 - o e A.<X2X/.Q.V.V.V.~.~.~./././.`.#X`..X(.w O.Z.M.M.E.XXM.U.|.P.oXXXOXtX3.D b.>.",
"VXX.4.X.A ^ ^ ) s -.$X{ A ) ^ ) ( 7 3 3 e T ! L.<XrX2X.X(.V.B.B.V.V.V.~.~.~.~././././.Q.F.6 Z.n.M.M.E._.k._.}.b._.XXXX9X .[ j.VX",
"VX` q.2.) D ^ D V ( OX1.D D D G @ ! J.<XwX2X:X X.X(.c.C.l.l.l.B.V.V.V.V.V./.~././.(.s.H.@  .h.d.n.M.M.E.j.OXP.M.W._.XX+X/ $.r.VX",
"VX~ o.5.{ A ^ ^ ^ s }.^.[ B ^ &.3 Q <.c.G.B.s.i.s.i.i.i.l.l.l.C.C.V.V.V.V.V.~.V.Q.G.G.& z h.$.e.e.n.M.k.v.>Xr.M.E.W.+XI.Z q.1.VX",
"VX/ } 1. .V D D ) s ;.8Xo.A D ) C # :.@.%.y.y.y.y.g.u.g.i.l.l.l.C.C.V.V.B.B.G.s.s.D.@ u *.%.%.0.e.e.m.d.OXT.e.E.E.E.4X,.Z w.,.VX",
"VXVX` 1.O.D ^ ^ ) A N ,Xv.) B ^ &.; J ..@.y.y.y.y.y.u.u.u.i.g.l.l.C.C.C.l.s.s.p.! O u @.' } o.$.q.e.n.U.,Xe.n.M.E.E.+X^ ) q.VXVX",
"VXVX~ } 4.} V ^ ^ ) 0 t.5Xo.A D ^ | + 9.#.<.%.y.y.y.y.u.u.u.g.l.l.l.i.i.p.p.p.* X k H S ` ' X.%.*.0.e.OX_.;.m.m.m._.t.S $.1.VXVX",
"VXVX~ D 1.>.V D ^ ^ A N ,XW.} B ^ } s @ #.@.%.<.y.y.y.y.u.u.i.i.i.i.p.p.! J % ; M C k S ] ` } X.X.0._.,X;.0.e.m.n.'.+.A 0.>.VXVX",
"VXVXVX~ } 3.^ D ^ D ) 0 O.tXw.^ B ^ &.- J #.@.@.<.<.<.<.y.p.u.u.i.i.p.W . = r p d f k l S ] } ` o.b.iXb.{ e.e.e.m.M.^ } $.VXVXVX",
"VXVXVX~ A 4.,.v ^ ^ ^ ) 0 Y.9X*.A S [ G + Q #.#.#.#.#.#.#.>.<.u.i.i.y.$ t M i y y d k k S S l H w.9XXX^ $.0.q.e.N.o.~ 0.>.VXVXVX",
"VXVXVXVXk [ 7.{ V ^ ^ ) A 0 ,X%X*.Z B | k O I U U I Q R J :.<.u.p.y.u.J < f i y y y f f k k k g.4X8X( { $.$.0.f.e.^ X.$.VXVXVXVX",
"VXVXVXVX~ B O.j.V ^ ^ ^ ) B j tXOX$.D k &.j # J e $ 3 4 . Q @.@.:.y.p.K ; p d i y y i f y d y.6XiX( S X.+.$.$.e.' ' $.$.VXVXVXVX",
"VXVXVXVXVXl B j.>.v ) D ^ [ v l iX,Xq.F N | Z 9 h F G =.3 R ..Q Q #.:.w > m a g i i t > p d.9XiX~ h [ { X.o.1.} ` o.$.VXVXVXVXVX",
"VXVXVXVXVXVXp D T.{ m ^ D ^ ) s N ,XtXk.} A C | [ ) F G ( 5 5 5 5 6 $ 3 k h d p d 2 : Z ).jX,Xl g / ` ' ' X.X.` +.o.VXVXVXVXVXVX",
"VXVXVXVXVXVX~ r X.}.D B ^ ^ ) ) v N T.iX+X0.[ V B A ^ ^ [ F B V v v f C k f i , , f 1.6XjXP.y i S S ~ ` { } ^ X.o.O.VXVXVXVXVXVX",
"VXVXVXVXVXVXVXl r 1.OXB B ) D ^ ) V 0 -.,XtXoX0.} D B B A C C C V V B p i i f ^ 1.%XjX7X] > y k k l S S ~ ' +.o.$.VXVXVXVXVXVXVX",
"VXVXVXVXVXVXVXVXh 1 j.>Xm M ) ^ A ) ^ s B t.,XtX4XM.0.o.[ [ ^ D S D D D } $.U.9XaX7X7.8 : t d d h k l S ` %.o.+.VXVXVXVXVXVXVXVX",
"VXVXVXVXVXVXVXVXVXg r M.1XB v ) ^ ^ ^ ) A 0 Z 3.}.8X9X8X%XXXE.E.U.).oX4XtXsX9X}.2.a : , i 8 y d f d d ` $.} X.VXVXVXVXVXVXVXVXVX",
"VXVXVXVXVXVXVXVXVXVXg r b.uX^ c ^ ^ A ^ ) ) V s f _ 3.P.}.>X>X>X>X,XOX.XP.-.~ y 2 t a a i i y i y h ..,.X.} VXVXVXVXVXVXVXVXVXVX",
"VXVXVXVXVXVXVXVXVXVXVXs 1 q.fX8.b B ) ^ ^ ^ ^ ) D B v v N Z ( ( ^ ( B g i , i f f f a a i i , < l >.%.} { VXVXVXVXVXVXVXVXVXVXVX",
"VXVXVXVXVXVXVXVXVXVXVXVXl 1 [ eX;X^ c V ) ^ ^ D ^ ) ) ) ) A V B N N N B B N k h f f g p i , 8 ] 3.$.^ X.VXVXVXVXVXVXVXVXVXVXVXVX",
"VXVXVXVXVXVXVXVXVXVXVXVXVX~ 1 c T.uXY.( c V ^ ) ^ D D D ^ D ) ^ D D Z Z B B B h N f i , 1 U 7.r.[ ) X.VXVXVXVXVXVXVXVXVXVXVXVXVX",
"VXVXVXVXVXVXVXVXVXVXVXVXVXVXVXj 1 F >XiXP._ m c B D D ) ^ D ^ D D S D A B B h s i i h ] 3.r.$.D ` VXVXVXVXVXVXVXVXVXVXVXVXVXVXVX",
"VXVXVXVXVXVXVXVXVXVXVXVXVXVXVXVX~ i r X.}.>XXXt.X.V m m V B V A A B v v f v h S ' 3.s.t.o.) ^ { VXVXVXVXVXVXVXVXVXVXVXVXVXVXVXVX",
"VXVXVXVXVXVXVXVXVXVXVXVXVXVXVXVXVXVX~ g r V r.OX|.T.P.t.-.+.+.{ { { O.X.>.3.7.x.b.1.{ ^ ^ { VXVXVXVXVXVXVXVXVXVXVXVXVXVXVXVXVXVX",
"VXVXVXVXVXVXVXVXVXVXVXVXVXVXVXVXVXVXVXVX] j p p V o.t.U.U.^.}.I.T.T.I.x.j.w.%.[ D A ^ { VXVXVXVXVXVXVXVXVXVXVXVXVXVXVXVXVXVXVXVX",
"VXVXVXVXVXVXVXVXVXVXVXVXVXVXVXVXVXVXVXVXVXVXVX/ Z h v c m V Z D ^ D V D V V S ^ ' VXVXVXVXVXVXVXVXVXVXVXVXVXVXVXVXVXVXVXVXVXVXVX",
"VXVXVXVXVXVXVXVXVXVXVXVXVXVXVXVXVXVXVXVXVXVXVXVXVXVXVX' / ~ ~ S Z ~ / ] ' VXVXVXVXVXVXVXVXVXVXVXVXVXVXVXVXVXVXVXVXVXVXVXVXVXVXVX"
};
